<svg id="visual" viewBox="0 0 900 600" width="900" height="600" xmlns="http://www.w3.org/2000/svg" xmlns:xlink="http://www.w3.org/1999/xlink" version="1.1"><rect x="0" y="0" width="900" height="600" fill="#001220"></rect><defs><linearGradient id="grad1_0" x1="33.3%" y1="0%" x2="100%" y2="100%"><stop offset="20%" stop-color="#fbae3c" stop-opacity="1"></stop><stop offset="80%" stop-color="#fbae3c" stop-opacity="1"></stop></linearGradient></defs><defs><linearGradient id="grad1_1" x1="33.3%" y1="0%" x2="100%" y2="100%"><stop offset="20%" stop-color="#fbae3c" stop-opacity="1"></stop><stop offset="80%" stop-color="#96446e" stop-opacity="1"></stop></linearGradient></defs><defs><linearGradient id="grad1_2" x1="33.3%" y1="0%" x2="100%" y2="100%"><stop offset="20%" stop-color="#001220" stop-opacity="1"></stop><stop offset="80%" stop-color="#96446e" stop-opacity="1"></stop></linearGradient></defs><defs><linearGradient id="grad2_0" x1="0%" y1="0%" x2="66.7%" y2="100%"><stop offset="20%" stop-color="#fbae3c" stop-opacity="1"></stop><stop offset="80%" stop-color="#fbae3c" stop-opacity="1"></stop></linearGradient></defs><defs><linearGradient id="grad2_1" x1="0%" y1="0%" x2="66.7%" y2="100%"><stop offset="20%" stop-color="#96446e" stop-opacity="1"></stop><stop offset="80%" stop-color="#fbae3c" stop-opacity="1"></stop></linearGradient></defs><defs><linearGradient id="grad2_2" x1="0%" y1="0%" x2="66.7%" y2="100%"><stop offset="20%" stop-color="#96446e" stop-opacity="1"></stop><stop offset="80%" stop-color="#001220" stop-opacity="1"></stop></linearGradient></defs><g transform="translate(900, 0)"><path d="M0 324.5C-22.8 295.8 -45.5 267.2 -68.1 254C-90.6 240.9 -113 243.3 -139.5 241.6C-166 239.9 -196.6 234 -219.2 219.2C-241.8 204.4 -256.3 180.6 -271.9 157C-287.6 133.4 -304.5 110.1 -313.4 84C-322.4 57.9 -323.5 28.9 -324.5 0L0 0Z" fill="#3d3056"></path><path d="M0 216.3C-15.2 197.2 -30.3 178.1 -45.4 169.4C-60.4 160.6 -75.3 162.2 -93 161.1C-110.7 159.9 -131.1 156 -146.1 146.1C-161.2 136.2 -170.8 120.4 -181.3 104.7C-191.7 89 -203 73.4 -209 56C-214.9 38.6 -215.6 19.3 -216.3 0L0 0Z" fill="#e1685e"></path><path d="M0 108.2C-7.6 98.6 -15.2 89.1 -22.7 84.7C-30.2 80.3 -37.7 81.1 -46.5 80.5C-55.3 80 -65.5 78 -73.1 73.1C-80.6 68.1 -85.4 60.2 -90.6 52.3C-95.9 44.5 -101.5 36.7 -104.5 28C-107.5 19.3 -107.8 9.6 -108.2 0L0 0Z" fill="#fbae3c"></path></g><g transform="translate(0, 600)"><path d="M0 -324.5C24 -304.6 48.1 -284.7 73.8 -275.3C99.4 -265.9 126.8 -266.9 148 -256.3C169.2 -245.8 184.4 -223.7 207.9 -207.9C231.3 -192 263.1 -182.4 281 -162.2C299 -142.1 303.2 -111.4 308.1 -82.6C313.1 -53.8 318.8 -26.9 324.5 0L0 0Z" fill="#3d3056"></path><path d="M0 -216.3C16 -203.1 32.1 -189.8 49.2 -183.5C66.3 -177.2 84.5 -177.9 98.7 -170.9C112.8 -163.9 123 -149.2 138.6 -138.6C154.2 -128 175.4 -121.6 187.3 -108.2C199.3 -94.7 202.1 -74.2 205.4 -55C208.7 -35.8 212.5 -17.9 216.3 0L0 0Z" fill="#e1685e"></path><path d="M0 -108.2C8 -101.5 16 -94.9 24.6 -91.8C33.1 -88.6 42.3 -89 49.3 -85.4C56.4 -81.9 61.5 -74.6 69.3 -69.3C77.1 -64 87.7 -60.8 93.7 -54.1C99.7 -47.4 101.1 -37.1 102.7 -27.5C104.4 -17.9 106.3 -9 108.2 0L0 0Z" fill="#fbae3c"></path></g></svg>