<svg id="visual" viewBox="0 0 960 540" width="960" height="540" xmlns="http://www.w3.org/2000/svg" xmlns:xlink="http://www.w3.org/1999/xlink" version="1.1"><rect x="0" y="0" width="960" height="540" fill="#ffffff"></rect><g fill="none" stroke="#FBAE3C" stroke-width="2"><circle r="25" cx="839" cy="97"></circle><circle r="13" cx="153" cy="102"></circle><circle r="20" cx="359" cy="449"></circle><circle r="13" cx="892" cy="494"></circle><circle r="16" cx="520" cy="4"></circle><circle r="13" cx="690" cy="394"></circle><circle r="17" cx="56" cy="130"></circle><circle r="16" cx="165" cy="206"></circle><circle r="17" cx="562" cy="341"></circle><circle r="14" cx="578" cy="88"></circle><circle r="14" cx="280" cy="224"></circle><circle r="23" cx="54" cy="471"></circle><circle r="17" cx="850" cy="151"></circle><circle r="18" cx="491" cy="217"></circle><circle r="22" cx="390" cy="113"></circle><circle r="21" cx="579" cy="412"></circle><circle r="19" cx="409" cy="515"></circle><circle r="22" cx="22" cy="40"></circle><circle r="21" cx="605" cy="303"></circle><circle r="18" cx="277" cy="26"></circle><circle r="21" cx="911" cy="387"></circle><circle r="21" cx="537" cy="270"></circle><circle r="16" cx="174" cy="5"></circle><circle r="15" cx="222" cy="140"></circle><circle r="18" cx="177" cy="481"></circle><circle r="21" cx="663" cy="266"></circle><circle r="17" cx="313" cy="532"></circle><circle r="14" cx="804" cy="54"></circle><circle r="22" cx="25" cy="265"></circle><circle r="22" cx="279" cy="392"></circle><circle r="18" cx="685" cy="142"></circle><circle r="12" cx="635" cy="80"></circle><circle r="14" cx="247" cy="524"></circle></g></svg>